<svg viewBox="0 0 1212.24 176.16" height="176.16" width="1212.24" xmlns="http://www.w3.org/2000/svg">
  <path fill="#fff" transform="translate(-16.8 171.6)" d="M105.12,1.2,16.8-169.2H50.4L120.72-37.44l67.2-131.76h15.12L116.16,1.2ZM239.04-169.2H393.6v12.24H269.28v64.32h104.4V-80.4H269.28v69.36H393.6V1.2H239.04ZM429.6,1.44V-169.2h30.48V-10.8H569.76V1.44ZM688.32,4.56h-4.56q-48,0-79.8-24.72t-31.8-61.92q0-38.4,31.8-63.96t79.8-25.56h4.56q48,0,79.8,25.56t31.8,63.96q0,37.2-31.8,61.92T688.32,4.56ZM605.04-82.08q0,32.88,20.64,53.52T678.72-6.24l7.2.24q5.04,0,7.44-.24,32.4-1.68,53.04-22.32t20.64-53.52q0-33.36-20.04-54.84T695.52-160.8l-9.36-.24q-1.68,0-4.92.12t-4.68.12q-31.44,2.4-51.48,23.88T605.04-82.08ZM918,2.16q-37.2,0-62.04-16.32T831.12-54.72V-169.2h30.24V-57.6q0,46.08,56.64,46.08,30.96,0,49.2-13.08t18.72-35.88V-169.2h13.2V-58.8q-1.2,26.4-24.24,43.68T918,2.16ZM1035.12-169.2h95.76q36.72,0,57.36,11.52t20.64,32.4q0,20.4-17.28,32.76T1143.36-78q6,3.36,14.04,12.36t15.96,18.96q7.92,9.96,16.56,19.44a73.928,73.928,0,0,0,18.84,15.12q10.2,5.64,20.28,4.68l-2.16,9.84A61.454,61.454,0,0,1,1194.96-3a104.007,104.007,0,0,1-28.32-18.6q-12.48-11.52-23.4-23.52a286.715,286.715,0,0,0-21.6-21.48q-10.68-9.48-18.6-10.92h-37.68V1.2h-30.24ZM1065.36-90h52.8q59.52,0,59.52-35.28,0-16.8-14.88-24.24t-43.92-7.44h-53.52Z" data-name="Path 2" id="Path_2"></path>
</svg>
